<?xml version="1.0" encoding="utf-8"?>
<!-- Generator: Adobe Illustrator 15.1.0, SVG Export Plug-In . SVG Version: 6.00 Build 0)  -->
<!DOCTYPE svg PUBLIC "-//W3C//DTD SVG 1.1//EN" "http://www.w3.org/Graphics/SVG/1.1/DTD/svg11.dtd">
<svg version="1.1" id="Camada_1" xmlns="http://www.w3.org/2000/svg" xmlns:xlink="http://www.w3.org/1999/xlink" x="0px" y="0px"
	 width="339.561px" height="329.67px" viewBox="0 0 339.561 329.67" enable-background="new 0 0 339.561 329.67"
	 xml:space="preserve">
<ellipse fill="#7B057E" stroke="#000000" stroke-width="5" stroke-miterlimit="10" cx="169.231" cy="165.154" rx="163.736" ry="158.792"/>
<polygon fill="#5FA199" stroke="#000000" stroke-width="5" stroke-miterlimit="10" points="59.813,103.528 167.141,39.148 
	276.559,99.907 278.648,225.044 171.322,289.423 61.904,228.666 "/>
<polygon fill="#BF3376" stroke="#000000" stroke-width="5" stroke-miterlimit="10" points="65.708,162.47 117.249,74.742 
	220.771,76.558 272.752,166.102 221.211,253.828 117.689,252.015 "/>
<ellipse fill="#58167D" stroke="#000000" stroke-width="5" stroke-miterlimit="10" cx="169.231" cy="124.176" rx="24.725" ry="23.077"/>
<ellipse fill="#58167D" stroke="#000000" stroke-miterlimit="10" cx="760.439" cy="362.946" rx="0" ry="11.298"/>
<ellipse fill="#58167D" stroke="#000000" stroke-width="5" stroke-miterlimit="10" cx="193.957" cy="188.23" rx="24.725" ry="23.078"/>
<ellipse fill="#58167D" stroke="#000000" stroke-width="5" stroke-miterlimit="10" cx="200.077" cy="147.252" rx="24.725" ry="23.077"/>
<ellipse fill="#58167D" stroke="#000000" stroke-width="5" stroke-miterlimit="10" cx="150.626" cy="188.231" rx="24.725" ry="23.077"/>
<ellipse fill="#58167D" stroke="#000000" stroke-width="5" stroke-miterlimit="10" cx="139.857" cy="147.253" rx="24.725" ry="23.077"/>
<ellipse fill="#F7EC45" stroke="#000000" stroke-width="5" stroke-miterlimit="10" cx="169.23" cy="158.472" rx="21.615" ry="19.043"/>
<text transform="matrix(1 0 0 1 147.6147 241.7583)" font-family="'NotoSans-Regular'" font-size="25">J.E.P</text>
</svg>
